<svg width="197" height="238" viewBox="0 0 197 238" fill="none" xmlns="http://www.w3.org/2000/svg">
<circle cx="2.5" cy="2.5" r="2.5" fill="#FFAB00"/>
<circle cx="14.5" cy="3.5" r="2.5" fill="#FFAB00"/>
<circle cx="26.5" cy="4.5" r="2.5" fill="#FFAB00"/>
<circle cx="38.5" cy="5.5" r="2.5" fill="#FFAB00"/>
<circle cx="50.5" cy="6.5" r="2.5" fill="#FFAB00"/>
<circle cx="62.5" cy="7.5" r="2.5" fill="#FFAB00"/>
<circle cx="74.5" cy="8.5" r="2.5" fill="#FFAB00"/>
<circle cx="86.5" cy="9.5" r="2.5" fill="#FFAB00"/>
<circle cx="98.5" cy="11.5" r="2.5" fill="#FFAB00"/>
<circle cx="110.5" cy="12.5" r="2.5" fill="#FFAB00"/>
<circle cx="122.5" cy="13.5" r="2.5" fill="#FFAB00"/>
<circle cx="134.5" cy="14.5" r="2.5" fill="#FFAB00"/>
<circle cx="146.5" cy="15.5" r="2.5" fill="#FFAB00"/>
<circle cx="158.5" cy="16.5" r="2.5" fill="#FFAB00"/>
<circle cx="170.5" cy="17.5" r="2.5" fill="#FFAB00"/>
<circle cx="182.5" cy="18.5" r="2.5" fill="#FFAB00"/>
<circle cx="194.5" cy="19.5" r="2.5" fill="#FFAB00"/>
<circle cx="2.5" cy="218.5" r="2.5" fill="#FFAB00"/>
<circle cx="14.5" cy="219.5" r="2.5" fill="#FFAB00"/>
<circle cx="26.5" cy="220.5" r="2.5" fill="#FFAB00"/>
<circle cx="38.5" cy="221.5" r="2.5" fill="#FFAB00"/>
<circle cx="50.5" cy="222.5" r="2.5" fill="#FFAB00"/>
<circle cx="62.5" cy="223.5" r="2.5" fill="#FFAB00"/>
<circle cx="74.5" cy="224.5" r="2.5" fill="#FFAB00"/>
<circle cx="86.5" cy="225.5" r="2.5" fill="#FFAB00"/>
<circle cx="98.5" cy="227.5" r="2.5" fill="#FFAB00"/>
<circle cx="110.5" cy="228.5" r="2.5" fill="#FFAB00"/>
<circle cx="122.5" cy="229.5" r="2.5" fill="#FFAB00"/>
<circle cx="134.5" cy="230.5" r="2.5" fill="#FFAB00"/>
<circle cx="146.5" cy="231.5" r="2.5" fill="#FFAB00"/>
<circle cx="158.5" cy="232.5" r="2.5" fill="#FFAB00"/>
<circle cx="170.5" cy="233.5" r="2.5" fill="#FFAB00"/>
<circle cx="182.5" cy="234.5" r="2.5" fill="#FFAB00"/>
<circle cx="194.5" cy="235.5" r="2.5" fill="#FFAB00"/>
<circle cx="2.5" cy="20.5" r="2.5" fill="#FFAB00"/>
<circle cx="14.5" cy="21.5" r="2.5" fill="#FFAB00"/>
<circle cx="26.5" cy="22.5" r="2.5" fill="#FFAB00"/>
<circle cx="38.5" cy="23.5" r="2.5" fill="#FFAB00"/>
<circle cx="50.5" cy="24.5" r="2.5" fill="#FFAB00"/>
<circle cx="62.5" cy="25.5" r="2.5" fill="#FFAB00"/>
<circle cx="74.5" cy="26.5" r="2.5" fill="#FFAB00"/>
<circle cx="86.5" cy="27.5" r="2.5" fill="#FFAB00"/>
<circle cx="98.5" cy="29.5" r="2.5" fill="#FFAB00"/>
<circle cx="110.5" cy="30.5" r="2.5" fill="#FFAB00"/>
<circle cx="122.5" cy="31.5" r="2.5" fill="#FFAB00"/>
<circle cx="134.5" cy="32.5" r="2.5" fill="#FFAB00"/>
<circle cx="146.5" cy="33.5" r="2.5" fill="#FFAB00"/>
<circle cx="158.5" cy="34.5" r="2.5" fill="#FFAB00"/>
<circle cx="170.5" cy="35.5" r="2.5" fill="#FFAB00"/>
<circle cx="182.5" cy="36.5" r="2.5" fill="#FFAB00"/>
<circle cx="194.5" cy="37.5" r="2.5" fill="#FFAB00"/>
<circle cx="2.5" cy="38.5" r="2.5" fill="#FFAB00"/>
<circle cx="14.5" cy="39.5" r="2.5" fill="#FFAB00"/>
<circle cx="26.5" cy="40.5" r="2.5" fill="#FFAB00"/>
<circle cx="38.5" cy="41.5" r="2.5" fill="#FFAB00"/>
<circle cx="50.5" cy="42.5" r="2.5" fill="#FFAB00"/>
<circle cx="62.5" cy="43.5" r="2.5" fill="#FFAB00"/>
<circle cx="74.5" cy="44.5" r="2.5" fill="#FFAB00"/>
<circle cx="86.5" cy="45.5" r="2.5" fill="#FFAB00"/>
<circle cx="98.5" cy="47.5" r="2.5" fill="#FFAB00"/>
<circle cx="110.5" cy="48.5" r="2.5" fill="#FFAB00"/>
<circle cx="122.5" cy="49.5" r="2.5" fill="#FFAB00"/>
<circle cx="134.5" cy="50.5" r="2.5" fill="#FFAB00"/>
<circle cx="146.5" cy="51.5" r="2.5" fill="#FFAB00"/>
<circle cx="158.5" cy="52.5" r="2.5" fill="#FFAB00"/>
<circle cx="170.5" cy="53.5" r="2.5" fill="#FFAB00"/>
<circle cx="182.5" cy="54.5" r="2.5" fill="#FFAB00"/>
<circle cx="194.5" cy="55.5" r="2.5" fill="#FFAB00"/>
<circle cx="2.5" cy="56.5" r="2.5" fill="#FFAB00"/>
<circle cx="14.5" cy="57.5" r="2.5" fill="#FFAB00"/>
<circle cx="26.5" cy="58.5" r="2.5" fill="#FFAB00"/>
<circle cx="38.5" cy="59.5" r="2.5" fill="#FFAB00"/>
<circle cx="50.5" cy="60.5" r="2.5" fill="#FFAB00"/>
<circle cx="62.5" cy="61.5" r="2.5" fill="#FFAB00"/>
<circle cx="74.5" cy="62.5" r="2.5" fill="#FFAB00"/>
<circle cx="86.5" cy="63.5" r="2.5" fill="#FFAB00"/>
<circle cx="98.5" cy="65.5" r="2.5" fill="#FFAB00"/>
<circle cx="110.5" cy="66.5" r="2.5" fill="#FFAB00"/>
<circle cx="122.5" cy="67.5" r="2.5" fill="#FFAB00"/>
<circle cx="134.5" cy="68.5" r="2.5" fill="#FFAB00"/>
<circle cx="146.5" cy="69.5" r="2.5" fill="#FFAB00"/>
<circle cx="158.5" cy="70.5" r="2.5" fill="#FFAB00"/>
<circle cx="170.5" cy="71.5" r="2.5" fill="#FFAB00"/>
<circle cx="182.5" cy="72.5" r="2.5" fill="#FFAB00"/>
<circle cx="194.5" cy="73.5" r="2.5" fill="#FFAB00"/>
<circle cx="2.5" cy="74.5" r="2.5" fill="#FFAB00"/>
<circle cx="14.5" cy="75.5" r="2.5" fill="#FFAB00"/>
<circle cx="26.5" cy="76.5" r="2.5" fill="#FFAB00"/>
<circle cx="38.5" cy="77.5" r="2.5" fill="#FFAB00"/>
<circle cx="50.5" cy="78.5" r="2.5" fill="#FFAB00"/>
<circle cx="62.5" cy="79.5" r="2.5" fill="#FFAB00"/>
<circle cx="74.5" cy="80.5" r="2.5" fill="#FFAB00"/>
<circle cx="86.5" cy="81.5" r="2.5" fill="#FFAB00"/>
<circle cx="98.5" cy="83.5" r="2.5" fill="#FFAB00"/>
<circle cx="110.5" cy="84.5" r="2.5" fill="#FFAB00"/>
<circle cx="122.5" cy="85.5" r="2.5" fill="#FFAB00"/>
<circle cx="134.5" cy="86.5" r="2.5" fill="#FFAB00"/>
<circle cx="146.5" cy="87.5" r="2.5" fill="#FFAB00"/>
<circle cx="158.5" cy="88.5" r="2.5" fill="#FFAB00"/>
<circle cx="170.5" cy="89.5" r="2.5" fill="#FFAB00"/>
<circle cx="182.5" cy="90.5" r="2.5" fill="#FFAB00"/>
<circle cx="194.5" cy="91.5" r="2.5" fill="#FFAB00"/>
<circle cx="2.5" cy="92.5" r="2.5" fill="#FFAB00"/>
<circle cx="14.5" cy="93.5" r="2.5" fill="#FFAB00"/>
<circle cx="26.5" cy="94.5" r="2.5" fill="#FFAB00"/>
<circle cx="38.5" cy="95.5" r="2.5" fill="#FFAB00"/>
<circle cx="50.5" cy="96.5" r="2.5" fill="#FFAB00"/>
<circle cx="62.5" cy="97.5" r="2.5" fill="#FFAB00"/>
<circle cx="74.5" cy="98.5" r="2.5" fill="#FFAB00"/>
<circle cx="86.5" cy="99.5" r="2.5" fill="#FFAB00"/>
<circle cx="98.5" cy="101.5" r="2.5" fill="#FFAB00"/>
<circle cx="110.5" cy="102.5" r="2.5" fill="#FFAB00"/>
<circle cx="122.5" cy="103.5" r="2.5" fill="#FFAB00"/>
<circle cx="134.5" cy="104.5" r="2.5" fill="#FFAB00"/>
<circle cx="146.5" cy="105.5" r="2.5" fill="#FFAB00"/>
<circle cx="158.5" cy="106.5" r="2.5" fill="#FFAB00"/>
<circle cx="170.5" cy="107.5" r="2.5" fill="#FFAB00"/>
<circle cx="182.5" cy="108.5" r="2.5" fill="#FFAB00"/>
<circle cx="194.5" cy="109.5" r="2.5" fill="#FFAB00"/>
<circle cx="2.5" cy="110.5" r="2.5" fill="#FFAB00"/>
<circle cx="14.5" cy="111.5" r="2.5" fill="#FFAB00"/>
<circle cx="26.5" cy="112.5" r="2.5" fill="#FFAB00"/>
<circle cx="38.5" cy="113.5" r="2.5" fill="#FFAB00"/>
<circle cx="50.5" cy="114.5" r="2.5" fill="#FFAB00"/>
<circle cx="62.5" cy="115.5" r="2.5" fill="#FFAB00"/>
<circle cx="74.5" cy="116.5" r="2.5" fill="#FFAB00"/>
<circle cx="86.5" cy="117.5" r="2.5" fill="#FFAB00"/>
<circle cx="98.5" cy="119.5" r="2.5" fill="#FFAB00"/>
<circle cx="110.5" cy="120.5" r="2.5" fill="#FFAB00"/>
<circle cx="122.5" cy="121.5" r="2.5" fill="#FFAB00"/>
<circle cx="134.5" cy="122.5" r="2.5" fill="#FFAB00"/>
<circle cx="146.5" cy="123.5" r="2.5" fill="#FFAB00"/>
<circle cx="158.5" cy="124.5" r="2.5" fill="#FFAB00"/>
<circle cx="170.5" cy="125.5" r="2.5" fill="#FFAB00"/>
<circle cx="182.5" cy="126.5" r="2.5" fill="#FFAB00"/>
<circle cx="194.5" cy="127.5" r="2.5" fill="#FFAB00"/>
<circle cx="2.5" cy="128.5" r="2.5" fill="#FFAB00"/>
<circle cx="14.5" cy="129.5" r="2.5" fill="#FFAB00"/>
<circle cx="26.5" cy="130.5" r="2.5" fill="#FFAB00"/>
<circle cx="38.5" cy="131.5" r="2.5" fill="#FFAB00"/>
<circle cx="50.5" cy="132.5" r="2.5" fill="#FFAB00"/>
<circle cx="62.5" cy="133.5" r="2.5" fill="#FFAB00"/>
<circle cx="74.5" cy="134.5" r="2.5" fill="#FFAB00"/>
<circle cx="86.5" cy="135.5" r="2.5" fill="#FFAB00"/>
<circle cx="98.5" cy="137.5" r="2.5" fill="#FFAB00"/>
<circle cx="110.5" cy="138.5" r="2.5" fill="#FFAB00"/>
<circle cx="122.5" cy="139.5" r="2.5" fill="#FFAB00"/>
<circle cx="134.5" cy="140.5" r="2.5" fill="#FFAB00"/>
<circle cx="146.5" cy="141.5" r="2.5" fill="#FFAB00"/>
<circle cx="158.5" cy="142.5" r="2.5" fill="#FFAB00"/>
<circle cx="170.5" cy="143.5" r="2.5" fill="#FFAB00"/>
<circle cx="182.5" cy="144.5" r="2.5" fill="#FFAB00"/>
<circle cx="194.5" cy="145.5" r="2.5" fill="#FFAB00"/>
<circle cx="2.5" cy="146.5" r="2.5" fill="#FFAB00"/>
<circle cx="14.5" cy="147.5" r="2.5" fill="#FFAB00"/>
<circle cx="26.5" cy="148.5" r="2.5" fill="#FFAB00"/>
<circle cx="38.5" cy="149.5" r="2.5" fill="#FFAB00"/>
<circle cx="50.5" cy="150.5" r="2.5" fill="#FFAB00"/>
<circle cx="62.5" cy="151.5" r="2.5" fill="#FFAB00"/>
<circle cx="74.5" cy="152.5" r="2.5" fill="#FFAB00"/>
<circle cx="86.5" cy="153.5" r="2.5" fill="#FFAB00"/>
<circle cx="98.5" cy="155.5" r="2.5" fill="#FFAB00"/>
<circle cx="110.5" cy="156.5" r="2.5" fill="#FFAB00"/>
<circle cx="122.5" cy="157.5" r="2.5" fill="#FFAB00"/>
<circle cx="134.5" cy="158.5" r="2.5" fill="#FFAB00"/>
<circle cx="146.5" cy="159.5" r="2.5" fill="#FFAB00"/>
<circle cx="158.5" cy="160.5" r="2.5" fill="#FFAB00"/>
<circle cx="170.5" cy="161.5" r="2.5" fill="#FFAB00"/>
<circle cx="182.5" cy="162.5" r="2.5" fill="#FFAB00"/>
<circle cx="194.5" cy="163.5" r="2.5" fill="#FFAB00"/>
<circle cx="2.5" cy="164.5" r="2.5" fill="#FFAB00"/>
<circle cx="14.5" cy="165.5" r="2.5" fill="#FFAB00"/>
<circle cx="26.5" cy="166.5" r="2.5" fill="#FFAB00"/>
<circle cx="38.5" cy="167.5" r="2.5" fill="#FFAB00"/>
<circle cx="50.5" cy="168.5" r="2.5" fill="#FFAB00"/>
<circle cx="62.5" cy="169.5" r="2.5" fill="#FFAB00"/>
<circle cx="74.5" cy="170.5" r="2.5" fill="#FFAB00"/>
<circle cx="86.5" cy="171.5" r="2.5" fill="#FFAB00"/>
<circle cx="98.5" cy="173.5" r="2.5" fill="#FFAB00"/>
<circle cx="110.5" cy="174.5" r="2.5" fill="#FFAB00"/>
<circle cx="122.5" cy="175.5" r="2.5" fill="#FFAB00"/>
<circle cx="134.5" cy="176.5" r="2.5" fill="#FFAB00"/>
<circle cx="146.5" cy="177.5" r="2.5" fill="#FFAB00"/>
<circle cx="158.5" cy="178.5" r="2.5" fill="#FFAB00"/>
<circle cx="170.5" cy="179.5" r="2.5" fill="#FFAB00"/>
<circle cx="182.5" cy="180.5" r="2.5" fill="#FFAB00"/>
<circle cx="194.5" cy="181.5" r="2.5" fill="#FFAB00"/>
<circle cx="2.5" cy="182.5" r="2.5" fill="#FFAB00"/>
<circle cx="14.5" cy="183.5" r="2.5" fill="#FFAB00"/>
<circle cx="26.5" cy="184.5" r="2.5" fill="#FFAB00"/>
<circle cx="38.5" cy="185.5" r="2.5" fill="#FFAB00"/>
<circle cx="50.5" cy="186.5" r="2.5" fill="#FFAB00"/>
<circle cx="62.5" cy="187.5" r="2.5" fill="#FFAB00"/>
<circle cx="74.5" cy="188.5" r="2.5" fill="#FFAB00"/>
<circle cx="86.5" cy="189.5" r="2.5" fill="#FFAB00"/>
<circle cx="98.5" cy="191.5" r="2.5" fill="#FFAB00"/>
<circle cx="110.5" cy="192.5" r="2.5" fill="#FFAB00"/>
<circle cx="122.5" cy="193.5" r="2.5" fill="#FFAB00"/>
<circle cx="134.5" cy="194.5" r="2.5" fill="#FFAB00"/>
<circle cx="146.5" cy="195.5" r="2.5" fill="#FFAB00"/>
<circle cx="158.5" cy="196.5" r="2.5" fill="#FFAB00"/>
<circle cx="170.5" cy="197.5" r="2.5" fill="#FFAB00"/>
<circle cx="182.5" cy="198.5" r="2.5" fill="#FFAB00"/>
<circle cx="194.5" cy="199.5" r="2.5" fill="#FFAB00"/>
<circle cx="2.5" cy="200.5" r="2.5" fill="#FFAB00"/>
<circle cx="14.5" cy="201.5" r="2.5" fill="#FFAB00"/>
<circle cx="26.5" cy="202.5" r="2.5" fill="#FFAB00"/>
<circle cx="38.5" cy="203.5" r="2.5" fill="#FFAB00"/>
<circle cx="50.5" cy="204.5" r="2.5" fill="#FFAB00"/>
<circle cx="62.5" cy="205.5" r="2.5" fill="#FFAB00"/>
<circle cx="74.5" cy="206.5" r="2.5" fill="#FFAB00"/>
<circle cx="86.5" cy="207.5" r="2.5" fill="#FFAB00"/>
<circle cx="98.5" cy="209.5" r="2.5" fill="#FFAB00"/>
<circle cx="110.5" cy="210.5" r="2.5" fill="#FFAB00"/>
<circle cx="122.5" cy="211.5" r="2.5" fill="#FFAB00"/>
<circle cx="134.5" cy="212.5" r="2.5" fill="#FFAB00"/>
<circle cx="146.5" cy="213.5" r="2.5" fill="#FFAB00"/>
<circle cx="158.5" cy="214.5" r="2.5" fill="#FFAB00"/>
<circle cx="170.5" cy="215.5" r="2.5" fill="#FFAB00"/>
<circle cx="182.5" cy="216.5" r="2.5" fill="#FFAB00"/>
<circle cx="194.5" cy="217.5" r="2.5" fill="#FFAB00"/>
</svg>
