<svg width="229" height="197" viewBox="0 0 229 197" fill="none" xmlns="http://www.w3.org/2000/svg">
<circle cx="-1.5" cy="134.5" r="2.5" transform="rotate(-90 -1.5 134.5)" fill="#FFAB00"/>
<circle cx="-0.5" cy="122.5" r="2.5" transform="rotate(-90 -0.5 122.5)" fill="#FFAB00"/>
<circle cx="0.5" cy="110.5" r="2.5" transform="rotate(-90 0.5 110.5)" fill="#FFAB00"/>
<circle cx="2.5" cy="98.5" r="2.5" transform="rotate(-90 2.5 98.5)" fill="#FFAB00"/>
<circle cx="3.5" cy="86.5" r="2.5" transform="rotate(-90 3.5 86.5)" fill="#FFAB00"/>
<circle cx="4.5" cy="74.5" r="2.5" transform="rotate(-90 4.5 74.5)" fill="#FFAB00"/>
<circle cx="5.5" cy="62.5" r="2.5" transform="rotate(-90 5.5 62.5)" fill="#FFAB00"/>
<circle cx="6.5" cy="50.5" r="2.5" transform="rotate(-90 6.5 50.5)" fill="#FFAB00"/>
<circle cx="7.5" cy="38.5" r="2.5" transform="rotate(-90 7.5 38.5)" fill="#FFAB00"/>
<circle cx="8.5" cy="26.5" r="2.5" transform="rotate(-90 8.5 26.5)" fill="#FFAB00"/>
<circle cx="9.5" cy="14.5" r="2.5" transform="rotate(-90 9.5 14.5)" fill="#FFAB00"/>
<circle cx="10.5" cy="2.5" r="2.5" transform="rotate(-90 10.5 2.5)" fill="#FFAB00"/>
<circle cx="209.5" cy="194.5" r="2.5" transform="rotate(-90 209.5 194.5)" fill="#FFAB00"/>
<circle cx="210.5" cy="182.5" r="2.5" transform="rotate(-90 210.5 182.5)" fill="#FFAB00"/>
<circle cx="211.5" cy="170.5" r="2.5" transform="rotate(-90 211.5 170.5)" fill="#FFAB00"/>
<circle cx="212.5" cy="158.5" r="2.5" transform="rotate(-90 212.5 158.5)" fill="#FFAB00"/>
<circle cx="213.5" cy="146.5" r="2.5" transform="rotate(-90 213.5 146.5)" fill="#FFAB00"/>
<circle cx="214.5" cy="134.5" r="2.5" transform="rotate(-90 214.5 134.5)" fill="#FFAB00"/>
<circle cx="215.5" cy="122.5" r="2.5" transform="rotate(-90 215.5 122.5)" fill="#FFAB00"/>
<circle cx="216.5" cy="110.5" r="2.5" transform="rotate(-90 216.5 110.5)" fill="#FFAB00"/>
<circle cx="218.5" cy="98.5" r="2.5" transform="rotate(-90 218.5 98.5)" fill="#FFAB00"/>
<circle cx="219.5" cy="86.5" r="2.5" transform="rotate(-90 219.5 86.5)" fill="#FFAB00"/>
<circle cx="220.5" cy="74.5" r="2.5" transform="rotate(-90 220.5 74.5)" fill="#FFAB00"/>
<circle cx="221.5" cy="62.5" r="2.5" transform="rotate(-90 221.5 62.5)" fill="#FFAB00"/>
<circle cx="222.5" cy="50.5" r="2.5" transform="rotate(-90 222.5 50.5)" fill="#FFAB00"/>
<circle cx="223.5" cy="38.5" r="2.5" transform="rotate(-90 223.5 38.5)" fill="#FFAB00"/>
<circle cx="224.5" cy="26.5" r="2.5" transform="rotate(-90 224.5 26.5)" fill="#FFAB00"/>
<circle cx="225.5" cy="14.5" r="2.5" transform="rotate(-90 225.5 14.5)" fill="#FFAB00"/>
<circle cx="226.5" cy="2.5" r="2.5" transform="rotate(-90 226.5 2.5)" fill="#FFAB00"/>
<circle cx="11.5" cy="194.5" r="2.5" transform="rotate(-90 11.5 194.5)" fill="#FFAB00"/>
<circle cx="12.5" cy="182.5" r="2.5" transform="rotate(-90 12.5 182.5)" fill="#FFAB00"/>
<circle cx="13.5" cy="170.5" r="2.5" transform="rotate(-90 13.5 170.5)" fill="#FFAB00"/>
<circle cx="14.5" cy="158.5" r="2.5" transform="rotate(-90 14.5 158.5)" fill="#FFAB00"/>
<circle cx="15.5" cy="146.5" r="2.5" transform="rotate(-90 15.5 146.5)" fill="#FFAB00"/>
<circle cx="16.5" cy="134.5" r="2.5" transform="rotate(-90 16.5 134.5)" fill="#FFAB00"/>
<circle cx="17.5" cy="122.5" r="2.5" transform="rotate(-90 17.5 122.5)" fill="#FFAB00"/>
<circle cx="18.5" cy="110.5" r="2.5" transform="rotate(-90 18.5 110.5)" fill="#FFAB00"/>
<circle cx="20.5" cy="98.5" r="2.5" transform="rotate(-90 20.5 98.5)" fill="#FFAB00"/>
<circle cx="21.5" cy="86.5" r="2.5" transform="rotate(-90 21.5 86.5)" fill="#FFAB00"/>
<circle cx="22.5" cy="74.5" r="2.5" transform="rotate(-90 22.5 74.5)" fill="#FFAB00"/>
<circle cx="23.5" cy="62.5" r="2.5" transform="rotate(-90 23.5 62.5)" fill="#FFAB00"/>
<circle cx="24.5" cy="50.5" r="2.5" transform="rotate(-90 24.5 50.5)" fill="#FFAB00"/>
<circle cx="25.5" cy="38.5" r="2.5" transform="rotate(-90 25.5 38.5)" fill="#FFAB00"/>
<circle cx="26.5" cy="26.5" r="2.5" transform="rotate(-90 26.5 26.5)" fill="#FFAB00"/>
<circle cx="27.5" cy="14.5" r="2.5" transform="rotate(-90 27.5 14.5)" fill="#FFAB00"/>
<circle cx="28.5" cy="2.5" r="2.5" transform="rotate(-90 28.5 2.5)" fill="#FFAB00"/>
<circle cx="29.5" cy="194.5" r="2.5" transform="rotate(-90 29.5 194.5)" fill="#FFAB00"/>
<circle cx="30.5" cy="182.5" r="2.5" transform="rotate(-90 30.5 182.5)" fill="#FFAB00"/>
<circle cx="31.5" cy="170.5" r="2.5" transform="rotate(-90 31.5 170.5)" fill="#FFAB00"/>
<circle cx="32.5" cy="158.5" r="2.5" transform="rotate(-90 32.5 158.5)" fill="#FFAB00"/>
<circle cx="33.5" cy="146.5" r="2.5" transform="rotate(-90 33.5 146.5)" fill="#FFAB00"/>
<circle cx="34.5" cy="134.5" r="2.5" transform="rotate(-90 34.5 134.5)" fill="#FFAB00"/>
<circle cx="35.5" cy="122.5" r="2.5" transform="rotate(-90 35.5 122.5)" fill="#FFAB00"/>
<circle cx="36.5" cy="110.5" r="2.5" transform="rotate(-90 36.5 110.5)" fill="#FFAB00"/>
<circle cx="38.5" cy="98.5" r="2.5" transform="rotate(-90 38.5 98.5)" fill="#FFAB00"/>
<circle cx="39.5" cy="86.5" r="2.5" transform="rotate(-90 39.5 86.5)" fill="#FFAB00"/>
<circle cx="40.5" cy="74.5" r="2.5" transform="rotate(-90 40.5 74.5)" fill="#FFAB00"/>
<circle cx="41.5" cy="62.5" r="2.5" transform="rotate(-90 41.5 62.5)" fill="#FFAB00"/>
<circle cx="42.5" cy="50.5" r="2.5" transform="rotate(-90 42.5 50.5)" fill="#FFAB00"/>
<circle cx="43.5" cy="38.5" r="2.5" transform="rotate(-90 43.5 38.5)" fill="#FFAB00"/>
<circle cx="44.5" cy="26.5" r="2.5" transform="rotate(-90 44.5 26.5)" fill="#FFAB00"/>
<circle cx="45.5" cy="14.5" r="2.5" transform="rotate(-90 45.5 14.5)" fill="#FFAB00"/>
<circle cx="46.5" cy="2.5" r="2.5" transform="rotate(-90 46.5 2.5)" fill="#FFAB00"/>
<circle cx="47.5" cy="194.5" r="2.5" transform="rotate(-90 47.5 194.5)" fill="#FFAB00"/>
<circle cx="48.5" cy="182.5" r="2.5" transform="rotate(-90 48.5 182.5)" fill="#FFAB00"/>
<circle cx="49.5" cy="170.5" r="2.5" transform="rotate(-90 49.5 170.5)" fill="#FFAB00"/>
<circle cx="50.5" cy="158.5" r="2.5" transform="rotate(-90 50.5 158.5)" fill="#FFAB00"/>
<circle cx="51.5" cy="146.5" r="2.5" transform="rotate(-90 51.5 146.5)" fill="#FFAB00"/>
<circle cx="52.5" cy="134.5" r="2.5" transform="rotate(-90 52.5 134.5)" fill="#FFAB00"/>
<circle cx="53.5" cy="122.5" r="2.5" transform="rotate(-90 53.5 122.5)" fill="#FFAB00"/>
<circle cx="54.5" cy="110.5" r="2.5" transform="rotate(-90 54.5 110.5)" fill="#FFAB00"/>
<circle cx="56.5" cy="98.5" r="2.5" transform="rotate(-90 56.5 98.5)" fill="#FFAB00"/>
<circle cx="57.5" cy="86.5" r="2.5" transform="rotate(-90 57.5 86.5)" fill="#FFAB00"/>
<circle cx="58.5" cy="74.5" r="2.5" transform="rotate(-90 58.5 74.5)" fill="#FFAB00"/>
<circle cx="59.5" cy="62.5" r="2.5" transform="rotate(-90 59.5 62.5)" fill="#FFAB00"/>
<circle cx="60.5" cy="50.5" r="2.5" transform="rotate(-90 60.5 50.5)" fill="#FFAB00"/>
<circle cx="61.5" cy="38.5" r="2.5" transform="rotate(-90 61.5 38.5)" fill="#FFAB00"/>
<circle cx="62.5" cy="26.5" r="2.5" transform="rotate(-90 62.5 26.5)" fill="#FFAB00"/>
<circle cx="63.5" cy="14.5" r="2.5" transform="rotate(-90 63.5 14.5)" fill="#FFAB00"/>
<circle cx="64.5" cy="2.5" r="2.5" transform="rotate(-90 64.5 2.5)" fill="#FFAB00"/>
<circle cx="65.5" cy="194.5" r="2.5" transform="rotate(-90 65.5 194.5)" fill="#FFAB00"/>
<circle cx="66.5" cy="182.5" r="2.5" transform="rotate(-90 66.5 182.5)" fill="#FFAB00"/>
<circle cx="67.5" cy="170.5" r="2.5" transform="rotate(-90 67.5 170.5)" fill="#FFAB00"/>
<circle cx="68.5" cy="158.5" r="2.5" transform="rotate(-90 68.5 158.5)" fill="#FFAB00"/>
<circle cx="69.5" cy="146.5" r="2.5" transform="rotate(-90 69.5 146.5)" fill="#FFAB00"/>
<circle cx="70.5" cy="134.5" r="2.5" transform="rotate(-90 70.5 134.5)" fill="#FFAB00"/>
<circle cx="71.5" cy="122.5" r="2.5" transform="rotate(-90 71.5 122.5)" fill="#FFAB00"/>
<circle cx="72.5" cy="110.5" r="2.5" transform="rotate(-90 72.5 110.5)" fill="#FFAB00"/>
<circle cx="74.5" cy="98.5" r="2.5" transform="rotate(-90 74.5 98.5)" fill="#FFAB00"/>
<circle cx="75.5" cy="86.5" r="2.5" transform="rotate(-90 75.5 86.5)" fill="#FFAB00"/>
<circle cx="76.5" cy="74.5" r="2.5" transform="rotate(-90 76.5 74.5)" fill="#FFAB00"/>
<circle cx="77.5" cy="62.5" r="2.5" transform="rotate(-90 77.5 62.5)" fill="#FFAB00"/>
<circle cx="78.5" cy="50.5" r="2.5" transform="rotate(-90 78.5 50.5)" fill="#FFAB00"/>
<circle cx="79.5" cy="38.5" r="2.5" transform="rotate(-90 79.5 38.5)" fill="#FFAB00"/>
<circle cx="80.5" cy="26.5" r="2.5" transform="rotate(-90 80.5 26.5)" fill="#FFAB00"/>
<circle cx="81.5" cy="14.5" r="2.5" transform="rotate(-90 81.5 14.5)" fill="#FFAB00"/>
<circle cx="82.5" cy="2.5" r="2.5" transform="rotate(-90 82.5 2.5)" fill="#FFAB00"/>
<circle cx="83.5" cy="194.5" r="2.5" transform="rotate(-90 83.5 194.5)" fill="#FFAB00"/>
<circle cx="84.5" cy="182.5" r="2.5" transform="rotate(-90 84.5 182.5)" fill="#FFAB00"/>
<circle cx="85.5" cy="170.5" r="2.5" transform="rotate(-90 85.5 170.5)" fill="#FFAB00"/>
<circle cx="86.5" cy="158.5" r="2.5" transform="rotate(-90 86.5 158.5)" fill="#FFAB00"/>
<circle cx="87.5" cy="146.5" r="2.5" transform="rotate(-90 87.5 146.5)" fill="#FFAB00"/>
<circle cx="88.5" cy="134.5" r="2.5" transform="rotate(-90 88.5 134.5)" fill="#FFAB00"/>
<circle cx="89.5" cy="122.5" r="2.5" transform="rotate(-90 89.5 122.5)" fill="#FFAB00"/>
<circle cx="90.5" cy="110.5" r="2.5" transform="rotate(-90 90.5 110.5)" fill="#FFAB00"/>
<circle cx="92.5" cy="98.5" r="2.5" transform="rotate(-90 92.5 98.5)" fill="#FFAB00"/>
<circle cx="93.5" cy="86.5" r="2.5" transform="rotate(-90 93.5 86.5)" fill="#FFAB00"/>
<circle cx="94.5" cy="74.5" r="2.5" transform="rotate(-90 94.5 74.5)" fill="#FFAB00"/>
<circle cx="95.5" cy="62.5" r="2.5" transform="rotate(-90 95.5 62.5)" fill="#FFAB00"/>
<circle cx="96.5" cy="50.5" r="2.5" transform="rotate(-90 96.5 50.5)" fill="#FFAB00"/>
<circle cx="97.5" cy="38.5" r="2.5" transform="rotate(-90 97.5 38.5)" fill="#FFAB00"/>
<circle cx="98.5" cy="26.5" r="2.5" transform="rotate(-90 98.5 26.5)" fill="#FFAB00"/>
<circle cx="99.5" cy="14.5" r="2.5" transform="rotate(-90 99.5 14.5)" fill="#FFAB00"/>
<circle cx="100.5" cy="2.5" r="2.5" transform="rotate(-90 100.5 2.5)" fill="#FFAB00"/>
<circle cx="101.5" cy="194.5" r="2.5" transform="rotate(-90 101.5 194.5)" fill="#FFAB00"/>
<circle cx="102.5" cy="182.5" r="2.5" transform="rotate(-90 102.5 182.5)" fill="#FFAB00"/>
<circle cx="103.5" cy="170.5" r="2.5" transform="rotate(-90 103.5 170.5)" fill="#FFAB00"/>
<circle cx="104.5" cy="158.5" r="2.5" transform="rotate(-90 104.5 158.5)" fill="#FFAB00"/>
<circle cx="105.5" cy="146.5" r="2.5" transform="rotate(-90 105.5 146.5)" fill="#FFAB00"/>
<circle cx="106.5" cy="134.5" r="2.5" transform="rotate(-90 106.5 134.5)" fill="#FFAB00"/>
<circle cx="107.5" cy="122.5" r="2.5" transform="rotate(-90 107.5 122.5)" fill="#FFAB00"/>
<circle cx="108.5" cy="110.5" r="2.5" transform="rotate(-90 108.5 110.5)" fill="#FFAB00"/>
<circle cx="110.5" cy="98.5" r="2.5" transform="rotate(-90 110.5 98.5)" fill="#FFAB00"/>
<circle cx="111.5" cy="86.5" r="2.5" transform="rotate(-90 111.5 86.5)" fill="#FFAB00"/>
<circle cx="112.5" cy="74.5" r="2.5" transform="rotate(-90 112.5 74.5)" fill="#FFAB00"/>
<circle cx="113.5" cy="62.5" r="2.5" transform="rotate(-90 113.5 62.5)" fill="#FFAB00"/>
<circle cx="114.5" cy="50.5" r="2.5" transform="rotate(-90 114.5 50.5)" fill="#FFAB00"/>
<circle cx="115.5" cy="38.5" r="2.5" transform="rotate(-90 115.5 38.5)" fill="#FFAB00"/>
<circle cx="116.5" cy="26.5" r="2.5" transform="rotate(-90 116.5 26.5)" fill="#FFAB00"/>
<circle cx="117.5" cy="14.5" r="2.5" transform="rotate(-90 117.5 14.5)" fill="#FFAB00"/>
<circle cx="118.5" cy="2.5" r="2.5" transform="rotate(-90 118.5 2.5)" fill="#FFAB00"/>
<circle cx="119.5" cy="194.5" r="2.5" transform="rotate(-90 119.5 194.5)" fill="#FFAB00"/>
<circle cx="120.5" cy="182.5" r="2.5" transform="rotate(-90 120.5 182.5)" fill="#FFAB00"/>
<circle cx="121.5" cy="170.5" r="2.5" transform="rotate(-90 121.5 170.5)" fill="#FFAB00"/>
<circle cx="122.5" cy="158.5" r="2.5" transform="rotate(-90 122.5 158.5)" fill="#FFAB00"/>
<circle cx="123.5" cy="146.5" r="2.5" transform="rotate(-90 123.5 146.5)" fill="#FFAB00"/>
<circle cx="124.5" cy="134.5" r="2.5" transform="rotate(-90 124.5 134.5)" fill="#FFAB00"/>
<circle cx="125.5" cy="122.5" r="2.5" transform="rotate(-90 125.5 122.5)" fill="#FFAB00"/>
<circle cx="126.5" cy="110.5" r="2.5" transform="rotate(-90 126.5 110.5)" fill="#FFAB00"/>
<circle cx="128.5" cy="98.5" r="2.5" transform="rotate(-90 128.5 98.5)" fill="#FFAB00"/>
<circle cx="129.5" cy="86.5" r="2.5" transform="rotate(-90 129.5 86.5)" fill="#FFAB00"/>
<circle cx="130.5" cy="74.5" r="2.5" transform="rotate(-90 130.5 74.5)" fill="#FFAB00"/>
<circle cx="131.5" cy="62.5" r="2.5" transform="rotate(-90 131.5 62.5)" fill="#FFAB00"/>
<circle cx="132.5" cy="50.5" r="2.5" transform="rotate(-90 132.5 50.5)" fill="#FFAB00"/>
<circle cx="133.5" cy="38.5" r="2.5" transform="rotate(-90 133.5 38.5)" fill="#FFAB00"/>
<circle cx="134.5" cy="26.5" r="2.5" transform="rotate(-90 134.5 26.5)" fill="#FFAB00"/>
<circle cx="135.5" cy="14.5" r="2.5" transform="rotate(-90 135.5 14.5)" fill="#FFAB00"/>
<circle cx="136.5" cy="2.5" r="2.5" transform="rotate(-90 136.5 2.5)" fill="#FFAB00"/>
<circle cx="137.5" cy="194.5" r="2.5" transform="rotate(-90 137.5 194.5)" fill="#FFAB00"/>
<circle cx="138.5" cy="182.5" r="2.5" transform="rotate(-90 138.5 182.5)" fill="#FFAB00"/>
<circle cx="139.5" cy="170.5" r="2.5" transform="rotate(-90 139.5 170.5)" fill="#FFAB00"/>
<circle cx="140.5" cy="158.5" r="2.5" transform="rotate(-90 140.5 158.5)" fill="#FFAB00"/>
<circle cx="141.5" cy="146.5" r="2.5" transform="rotate(-90 141.5 146.5)" fill="#FFAB00"/>
<circle cx="142.5" cy="134.5" r="2.5" transform="rotate(-90 142.5 134.5)" fill="#FFAB00"/>
<circle cx="143.5" cy="122.5" r="2.5" transform="rotate(-90 143.5 122.5)" fill="#FFAB00"/>
<circle cx="144.5" cy="110.5" r="2.5" transform="rotate(-90 144.5 110.5)" fill="#FFAB00"/>
<circle cx="146.5" cy="98.5" r="2.5" transform="rotate(-90 146.5 98.5)" fill="#FFAB00"/>
<circle cx="147.5" cy="86.5" r="2.5" transform="rotate(-90 147.5 86.5)" fill="#FFAB00"/>
<circle cx="148.5" cy="74.5" r="2.5" transform="rotate(-90 148.5 74.5)" fill="#FFAB00"/>
<circle cx="149.5" cy="62.5" r="2.5" transform="rotate(-90 149.5 62.5)" fill="#FFAB00"/>
<circle cx="150.5" cy="50.5" r="2.5" transform="rotate(-90 150.5 50.5)" fill="#FFAB00"/>
<circle cx="151.5" cy="38.5" r="2.5" transform="rotate(-90 151.5 38.5)" fill="#FFAB00"/>
<circle cx="152.5" cy="26.5" r="2.5" transform="rotate(-90 152.5 26.5)" fill="#FFAB00"/>
<circle cx="153.5" cy="14.5" r="2.5" transform="rotate(-90 153.5 14.5)" fill="#FFAB00"/>
<circle cx="154.5" cy="2.5" r="2.5" transform="rotate(-90 154.5 2.5)" fill="#FFAB00"/>
<circle cx="155.5" cy="194.5" r="2.5" transform="rotate(-90 155.5 194.5)" fill="#FFAB00"/>
<circle cx="156.5" cy="182.5" r="2.5" transform="rotate(-90 156.5 182.5)" fill="#FFAB00"/>
<circle cx="157.5" cy="170.5" r="2.5" transform="rotate(-90 157.5 170.5)" fill="#FFAB00"/>
<circle cx="158.5" cy="158.5" r="2.5" transform="rotate(-90 158.5 158.5)" fill="#FFAB00"/>
<circle cx="159.5" cy="146.5" r="2.5" transform="rotate(-90 159.5 146.5)" fill="#FFAB00"/>
<circle cx="160.5" cy="134.5" r="2.5" transform="rotate(-90 160.5 134.5)" fill="#FFAB00"/>
<circle cx="161.5" cy="122.5" r="2.5" transform="rotate(-90 161.5 122.5)" fill="#FFAB00"/>
<circle cx="162.5" cy="110.5" r="2.5" transform="rotate(-90 162.5 110.5)" fill="#FFAB00"/>
<circle cx="164.5" cy="98.5" r="2.5" transform="rotate(-90 164.5 98.5)" fill="#FFAB00"/>
<circle cx="165.5" cy="86.5" r="2.5" transform="rotate(-90 165.5 86.5)" fill="#FFAB00"/>
<circle cx="166.5" cy="74.5" r="2.5" transform="rotate(-90 166.5 74.5)" fill="#FFAB00"/>
<circle cx="167.5" cy="62.5" r="2.5" transform="rotate(-90 167.5 62.5)" fill="#FFAB00"/>
<circle cx="168.5" cy="50.5" r="2.5" transform="rotate(-90 168.5 50.5)" fill="#FFAB00"/>
<circle cx="169.5" cy="38.5" r="2.5" transform="rotate(-90 169.5 38.5)" fill="#FFAB00"/>
<circle cx="170.5" cy="26.5" r="2.5" transform="rotate(-90 170.5 26.5)" fill="#FFAB00"/>
<circle cx="171.5" cy="14.5" r="2.5" transform="rotate(-90 171.5 14.5)" fill="#FFAB00"/>
<circle cx="172.5" cy="2.5" r="2.5" transform="rotate(-90 172.5 2.5)" fill="#FFAB00"/>
<circle cx="173.5" cy="194.5" r="2.5" transform="rotate(-90 173.5 194.5)" fill="#FFAB00"/>
<circle cx="174.5" cy="182.5" r="2.5" transform="rotate(-90 174.5 182.5)" fill="#FFAB00"/>
<circle cx="175.5" cy="170.5" r="2.5" transform="rotate(-90 175.5 170.5)" fill="#FFAB00"/>
<circle cx="176.5" cy="158.5" r="2.5" transform="rotate(-90 176.5 158.5)" fill="#FFAB00"/>
<circle cx="177.5" cy="146.5" r="2.5" transform="rotate(-90 177.5 146.5)" fill="#FFAB00"/>
<circle cx="178.5" cy="134.5" r="2.5" transform="rotate(-90 178.5 134.5)" fill="#FFAB00"/>
<circle cx="179.5" cy="122.5" r="2.5" transform="rotate(-90 179.5 122.5)" fill="#FFAB00"/>
<circle cx="180.5" cy="110.5" r="2.5" transform="rotate(-90 180.5 110.5)" fill="#FFAB00"/>
<circle cx="182.5" cy="98.5" r="2.5" transform="rotate(-90 182.5 98.5)" fill="#FFAB00"/>
<circle cx="183.5" cy="86.5" r="2.5" transform="rotate(-90 183.5 86.5)" fill="#FFAB00"/>
<circle cx="184.5" cy="74.5" r="2.5" transform="rotate(-90 184.5 74.5)" fill="#FFAB00"/>
<circle cx="185.5" cy="62.5" r="2.5" transform="rotate(-90 185.5 62.5)" fill="#FFAB00"/>
<circle cx="186.5" cy="50.5" r="2.5" transform="rotate(-90 186.5 50.5)" fill="#FFAB00"/>
<circle cx="187.5" cy="38.5" r="2.5" transform="rotate(-90 187.5 38.5)" fill="#FFAB00"/>
<circle cx="188.5" cy="26.5" r="2.5" transform="rotate(-90 188.5 26.5)" fill="#FFAB00"/>
<circle cx="189.5" cy="14.5" r="2.5" transform="rotate(-90 189.5 14.5)" fill="#FFAB00"/>
<circle cx="190.5" cy="2.5" r="2.5" transform="rotate(-90 190.5 2.5)" fill="#FFAB00"/>
<circle cx="191.5" cy="194.5" r="2.5" transform="rotate(-90 191.5 194.5)" fill="#FFAB00"/>
<circle cx="192.5" cy="182.5" r="2.5" transform="rotate(-90 192.5 182.5)" fill="#FFAB00"/>
<circle cx="193.5" cy="170.5" r="2.5" transform="rotate(-90 193.5 170.5)" fill="#FFAB00"/>
<circle cx="194.5" cy="158.5" r="2.5" transform="rotate(-90 194.5 158.5)" fill="#FFAB00"/>
<circle cx="195.5" cy="146.5" r="2.5" transform="rotate(-90 195.5 146.5)" fill="#FFAB00"/>
<circle cx="196.5" cy="134.5" r="2.5" transform="rotate(-90 196.5 134.5)" fill="#FFAB00"/>
<circle cx="197.5" cy="122.5" r="2.5" transform="rotate(-90 197.5 122.5)" fill="#FFAB00"/>
<circle cx="198.5" cy="110.5" r="2.5" transform="rotate(-90 198.5 110.5)" fill="#FFAB00"/>
<circle cx="200.5" cy="98.5" r="2.5" transform="rotate(-90 200.5 98.5)" fill="#FFAB00"/>
<circle cx="201.5" cy="86.5" r="2.5" transform="rotate(-90 201.5 86.5)" fill="#FFAB00"/>
<circle cx="202.5" cy="74.5" r="2.5" transform="rotate(-90 202.5 74.5)" fill="#FFAB00"/>
<circle cx="203.5" cy="62.5" r="2.5" transform="rotate(-90 203.5 62.5)" fill="#FFAB00"/>
<circle cx="204.5" cy="50.5" r="2.5" transform="rotate(-90 204.5 50.5)" fill="#FFAB00"/>
<circle cx="205.5" cy="38.5" r="2.5" transform="rotate(-90 205.5 38.5)" fill="#FFAB00"/>
<circle cx="206.5" cy="26.5" r="2.5" transform="rotate(-90 206.5 26.5)" fill="#FFAB00"/>
<circle cx="207.5" cy="14.5" r="2.5" transform="rotate(-90 207.5 14.5)" fill="#FFAB00"/>
<circle cx="208.5" cy="2.5" r="2.5" transform="rotate(-90 208.5 2.5)" fill="#FFAB00"/>
</svg>
