<svg width="88" height="88" viewBox="0 0 88 88" fill="none" xmlns="http://www.w3.org/2000/svg">
<g clip-path="url(#clip0)">
<path d="M44.0076 25.4579C32.6262 25.4579 23.3673 34.7168 23.3673 46.0975C23.3673 52.9905 26.7896 59.4025 32.5222 63.2476C32.8397 63.4618 33.2709 63.3772 33.4837 63.0584C33.6972 62.7409 33.6126 62.3104 33.2944 62.0969C27.9465 58.509 24.7544 52.5275 24.7544 46.0975C24.7544 35.4814 33.3915 26.8443 44.0083 26.8443C54.6245 26.8443 63.2616 35.4814 63.2616 46.0975C63.2616 52.5559 60.0473 58.5513 54.6633 62.1364C54.3444 62.3486 54.2578 62.779 54.4706 63.0972C54.6037 63.2982 54.8241 63.4064 55.048 63.4064C55.1804 63.4064 55.3135 63.3689 55.43 63.2899C61.2014 59.4483 64.6473 53.0203 64.6473 46.0975C64.6473 34.7168 55.3884 25.4579 44.0076 25.4579Z" fill="#FFAB00"/>
<path d="M50.1867 68.7405H37.8133C37.43 68.7405 37.1201 69.0503 37.1201 69.4337V77.2965C37.1201 80.5454 39.7473 83.1879 42.9762 83.1879H45.0855C48.2804 83.1879 50.8799 80.5454 50.8799 77.2965V69.4337C50.8799 69.0503 50.57 68.7405 50.1867 68.7405ZM49.4928 77.2965C49.4928 79.7809 47.5158 81.8015 45.0855 81.8015H42.9762C40.5119 81.8015 38.5065 79.7809 38.5065 77.2965V70.1269H49.4928V77.2965Z" fill="#FFAB00"/>
<path d="M33.5259 62.2758L33.311 62.1178C32.9991 61.8932 32.5673 61.9632 32.3434 62.2737C32.1195 62.5843 32.1895 63.0175 32.4993 63.2414L32.692 63.3828C34.9768 65.0964 37.2185 68.3828 37.2185 70.0166C37.2185 70.4 37.5284 70.7098 37.9117 70.7098C38.2951 70.7098 38.6049 70.4 38.6049 70.0173C38.6049 67.7007 35.9278 64.0774 33.5259 62.2758Z" fill="#FFAB00"/>
<path d="M55.7398 62.1996C55.5145 61.8911 55.0625 61.8364 54.7527 62.0616L54.5801 62.1892C52.1768 63.9929 49.499 67.6155 49.499 69.9321C49.499 70.3154 49.8089 70.6253 50.1922 70.6253C50.5748 70.6253 50.8854 70.3154 50.8861 69.9314C50.8861 68.2975 53.1286 65.0118 55.4147 63.2962L55.6081 63.1541C55.9165 62.9288 55.9658 62.5087 55.7398 62.1996Z" fill="#FFAB00" fill-opacity="0.4"/>
<path d="M46.0622 81.8015C45.6789 81.8015 45.369 82.1114 45.369 82.4947V84.3386C45.369 84.4647 45.3482 84.5389 45.3517 84.5514H42.6822C42.6725 84.5424 42.6316 84.4751 42.6316 84.3386V82.4947C42.6316 82.1114 42.3218 81.8015 41.9384 81.8015C41.5551 81.8015 41.2452 82.1114 41.2452 82.4947V84.3386C41.2452 85.2654 41.8594 85.9378 42.7072 85.9378H45.3565C46.1932 85.9378 46.7554 85.2952 46.7554 84.3386V82.4947C46.7554 82.1114 46.4455 81.8015 46.0622 81.8015Z" fill="#FFAB00" fill-opacity="0.4"/>
<path d="M42.2664 69.243L36.5517 47.2468C36.4554 46.876 36.0727 46.6521 35.7067 46.7505C35.3359 46.8469 35.1134 47.2253 35.2097 47.5955L40.9243 69.591C41.0055 69.9036 41.2869 70.1102 41.5947 70.1102C41.6529 70.1102 41.7111 70.1033 41.7693 70.088C42.1402 69.9917 42.3627 69.6132 42.2664 69.243Z" fill="#FFAB00"/>
<path d="M52.3585 46.7506C51.9918 46.6522 51.6105 46.8767 51.5135 47.2469L45.7988 69.2431C45.7032 69.6133 45.925 69.9918 46.2959 70.0881C46.3541 70.1034 46.4123 70.1103 46.4705 70.1103C46.779 70.1103 47.0597 69.9037 47.1408 69.5911L52.8555 47.5956C52.9511 47.2254 52.7293 46.8469 52.3585 46.7506Z" fill="#FFAB00"/>
<path d="M51.5059 48.1287C50.5153 48.1287 50.0335 48.8253 49.6814 49.3334C49.3563 49.8041 49.2267 49.9406 48.9979 49.9406C48.7692 49.9406 48.6402 49.8041 48.3144 49.3334C47.9623 48.8253 47.4812 48.1287 46.4907 48.1287C45.5001 48.1287 45.019 48.8253 44.6669 49.3334C44.3418 49.8041 44.2122 49.9406 43.9834 49.9406C43.756 49.9406 43.6271 49.8041 43.3027 49.3334C42.9513 48.8253 42.4702 48.1287 41.481 48.1287C40.4904 48.1287 40.0087 48.8253 39.6572 49.3341C39.3321 49.8041 39.2032 49.9406 38.9751 49.9406C38.7471 49.9406 38.6181 49.8041 38.293 49.3334C37.9416 48.8253 37.4605 48.1287 36.4707 48.1287C36.0873 48.1287 35.7775 48.4385 35.7775 48.8218C35.7775 49.2052 36.0873 49.515 36.4707 49.515C36.6987 49.515 36.8276 49.6516 37.1527 50.1223C37.5042 50.6304 37.9853 51.327 38.9751 51.327C39.965 51.327 40.4461 50.6304 40.7975 50.1223C41.1226 49.6516 41.2523 49.515 41.481 49.515C41.7084 49.515 41.8366 49.6516 42.161 50.1216C42.5125 50.6304 42.9935 51.327 43.9834 51.327C44.974 51.327 45.455 50.6304 45.8072 50.1223C46.1323 49.6516 46.2619 49.515 46.4907 49.515C46.7194 49.515 46.8483 49.6516 47.1741 50.1223C47.5263 50.6304 48.0074 51.327 48.9979 51.327C49.9885 51.327 50.4696 50.6304 50.8217 50.1223C51.1468 49.6516 51.2764 49.515 51.5059 49.515C51.8892 49.515 52.1991 49.2052 52.1991 48.8218C52.1991 48.4385 51.8892 48.1287 51.5059 48.1287Z" fill="#FFAB00" fill-opacity="0.4"/>
<path d="M53.7746 31.5816C53.4585 31.3681 53.0266 31.4513 52.8124 31.7681C52.5982 32.0856 52.6814 32.5167 52.9989 32.7309C57.4485 35.738 60.1055 40.7351 60.1055 46.0976C60.1055 46.481 60.4153 46.7908 60.7986 46.7908C61.182 46.7908 61.4918 46.481 61.4918 46.0969C61.4918 40.2735 58.6068 34.8465 53.7746 31.5816Z" fill="#FFAB00" fill-opacity="0.4"/>
<path d="M46.0615 72.8656H37.8133C37.43 72.8656 37.1201 73.1755 37.1201 73.5588C37.1201 73.9421 37.43 74.252 37.8133 74.252H46.0622C46.4448 74.252 46.7547 73.9421 46.7547 73.5588C46.7547 73.1755 46.4448 72.8656 46.0615 72.8656Z" fill="#FFAB00" fill-opacity="0.4"/>
<path d="M46.0615 76.3025H37.8133C37.43 76.3025 37.1201 76.6123 37.1201 76.9957C37.1201 77.379 37.43 77.6889 37.8133 77.6889H46.0622C46.4448 77.6889 46.7547 77.379 46.7547 76.9957C46.7547 76.6123 46.4448 76.3025 46.0615 76.3025Z" fill="#FFAB00" fill-opacity="0.4"/>
<path d="M50.1867 72.8656H48.8121C48.4288 72.8656 48.1189 73.1755 48.1189 73.5588C48.1189 73.9421 48.4288 74.252 48.8121 74.252H50.1867C50.57 74.252 50.8799 73.9421 50.8799 73.5588C50.8799 73.1755 50.57 72.8656 50.1867 72.8656Z" fill="#FFAB00" fill-opacity="0.4"/>
<path d="M50.1867 76.3025H48.8121C48.4288 76.3025 48.1189 76.6123 48.1189 76.9957C48.1189 77.379 48.4288 77.6889 48.8121 77.6889H50.1867C50.57 77.6889 50.8799 77.379 50.8799 76.9957C50.8799 76.6123 50.57 76.3025 50.1867 76.3025Z" fill="#FFAB00" fill-opacity="0.4"/>
<path d="M49.499 79.0516H38.5002C38.1169 79.0516 37.807 79.3615 37.807 79.7448C37.807 80.1282 38.1169 80.438 38.5002 80.438H49.4997C49.8823 80.438 50.1922 80.1282 50.1922 79.7448C50.1922 79.3615 49.8823 79.0516 49.499 79.0516Z" fill="#FFAB00" fill-opacity="0.4"/>
<path d="M19.9402 45.369H0.693186C0.309854 45.369 0 45.6789 0 46.0622C0 46.4455 0.309854 46.7554 0.693186 46.7554H19.9402C20.3235 46.7554 20.6334 46.4455 20.6334 46.0622C20.6334 45.6789 20.3235 45.369 19.9402 45.369Z" fill="#FFAB00" fill-opacity="0.4"/>
<path d="M87.3068 45.369H68.0592C67.6758 45.369 67.366 45.6789 67.366 46.0622C67.366 46.4455 67.6758 46.7554 68.0592 46.7554H87.3068C87.6895 46.7554 88 46.4455 88 46.0622C88 45.6789 87.6902 45.369 87.3068 45.369Z" fill="#FFAB00"/>
<path d="M43.9999 2.06226C43.6166 2.06226 43.3068 2.3728 43.3068 2.75544V22.0032C43.3068 22.3858 43.6166 22.6963 43.9999 22.6963C44.3833 22.6963 44.6931 22.3858 44.6931 22.0032V2.75544C44.6931 2.3728 44.3833 2.06226 43.9999 2.06226Z" fill="#FFAB00" fill-opacity="0.4"/>
<path d="M75.1254 14.9451C74.8543 14.6741 74.4162 14.6741 74.1452 14.9451L60.5352 28.5551C60.2642 28.8262 60.2642 29.2643 60.5352 29.5353C60.6704 29.6705 60.8478 29.7384 61.0253 29.7384C61.202 29.7384 61.3795 29.6705 61.5153 29.5353L75.1254 15.9253C75.3964 15.6542 75.3964 15.2161 75.1254 14.9451Z" fill="#FFAB00"/>
<path d="M27.4799 28.5551L13.8692 14.9451C13.5982 14.6741 13.1601 14.6741 12.8891 14.9451C12.618 15.2161 12.618 15.6542 12.8891 15.9253L26.4998 29.5353C26.635 29.6705 26.8124 29.7384 26.9899 29.7384C27.1673 29.7384 27.3448 29.6705 27.4799 29.5353C27.751 29.2643 27.751 28.8262 27.4799 28.5551Z" fill="#FFAB00"/>
<path d="M60.8479 5.40477C60.4964 5.25851 60.0881 5.42626 59.9419 5.77979L52.5768 23.5614C52.4305 23.9156 52.5983 24.3211 52.9518 24.4674C53.0384 24.5034 53.1285 24.5208 53.2173 24.5208C53.4883 24.5208 53.7476 24.3593 53.8578 24.0924L61.2229 6.31077C61.3691 5.95655 61.2014 5.55103 60.8479 5.40477Z" fill="#FFAB00"/>
<path d="M22.0378 36.2121L4.25547 28.8456C3.90333 28.7 3.49574 28.8664 3.34947 29.2206C3.20321 29.5748 3.37096 29.9804 3.72449 30.1266L21.5075 37.4931C21.5941 37.5292 21.6842 37.5465 21.773 37.5465C22.044 37.5465 22.3026 37.385 22.4128 37.1181C22.559 36.7639 22.3913 36.3584 22.0378 36.2121Z" fill="#FFAB00"/>
<path d="M35.4378 23.5614L28.072 5.77974C27.9258 5.42621 27.5188 5.25916 27.166 5.40473C26.8125 5.55168 26.6447 5.95719 26.791 6.31072L34.1568 24.0923C34.267 24.3592 34.5256 24.5207 34.7973 24.5207C34.886 24.5207 34.9755 24.5034 35.0628 24.4673C35.4163 24.3204 35.5841 23.9149 35.4378 23.5614Z" fill="#FFAB00" fill-opacity="0.4"/>
<path d="M84.6644 29.2206C84.5181 28.8664 84.1112 28.7 83.7584 28.8456L65.9761 36.2121C65.6225 36.3591 65.4548 36.7646 65.6011 37.1181C65.7113 37.3857 65.9698 37.5465 66.2416 37.5465C66.3303 37.5465 66.4204 37.5292 66.5071 37.4931L84.2894 30.1266C84.6429 29.9797 84.8106 29.5742 84.6644 29.2206Z" fill="#FFAB00" fill-opacity="0.4"/>
</g>
<defs>
<clipPath id="clip0">
<rect width="88" height="88" fill="white"/>
</clipPath>
</defs>
</svg>
