<svg width="68" height="68" viewBox="0 0 68 68" fill="none" xmlns="http://www.w3.org/2000/svg">
<g clip-path="url(#clip0)">
<path d="M52.4491 25.2004C52.0708 24.8002 51.4396 24.7822 51.0393 25.1602C50.6389 25.5385 50.621 26.1697 50.9991 26.5701C55.1153 30.9272 57.3821 36.6281 57.3821 42.6232C57.3821 55.5163 46.8929 66.0054 34 66.0054C21.107 66.0054 10.6179 55.5161 10.6179 42.6232C10.6179 29.7302 21.107 19.241 34 19.241C35.5344 19.241 37.0459 19.3882 38.5207 19.6757C38.555 19.6841 38.5895 19.6907 38.6244 19.6955C41.9861 20.3668 45.1533 21.7736 47.9538 23.8596C48.3955 24.1884 49.0203 24.0972 49.3492 23.6556C49.6783 23.2139 49.5868 22.5892 49.1452 22.2602C46.6144 20.3749 43.8077 19.0017 40.8334 18.1737L43.6361 15.6308C43.8443 15.4417 43.9632 15.1736 43.9632 14.8922V10.3215C43.9737 10.3085 43.986 10.2964 43.9959 10.2828C44.5869 9.65388 49.121 5.14446 52.299 1.99444H53.6702C54.2211 1.99444 54.6674 1.54808 54.6674 0.99722C54.6674 0.446356 54.2211 0 53.6702 0H36.7905C36.2396 0 35.7933 0.446356 35.7933 0.99722C35.7933 1.54808 36.2396 1.99444 36.7905 1.99444H37.1912C36.2671 2.91401 35.09 4.08607 33.9702 5.20309C33.7777 5.01096 33.5841 4.81803 33.39 4.62444C32.4515 3.68891 31.5133 2.75485 30.7492 1.99444H31.1499C31.7007 1.99444 32.1472 1.54808 32.1472 0.99722C32.1472 0.446356 31.7007 0 31.1499 0H14.2705C13.7197 0 13.2733 0.446356 13.2733 0.99722C13.2733 1.54808 13.7197 1.99444 14.2705 1.99444H15.6392C18.5886 4.94328 23.6878 10.0416 24.0337 10.3888L24.037 10.3922V14.8923C24.037 15.1736 24.1559 15.4419 24.3641 15.631L27.1738 18.1802C16.486 21.1687 8.62329 30.9945 8.62329 42.6232C8.62329 56.6159 20.0072 67.9999 33.9999 67.9999C47.9926 67.9999 59.3764 56.6159 59.3764 42.6232C59.3766 36.1169 56.9164 29.9294 52.4491 25.2004ZM46.8171 4.62776C45.5494 5.88945 44.5406 6.89664 43.8186 7.62155C43.4086 8.03307 43.0679 8.37704 42.8306 8.6193C42.7661 8.68512 42.7095 8.74335 42.6604 8.79401C42.6131 8.78936 42.5652 8.7867 42.5168 8.7867H39.2673C41.0063 7.04463 43.8678 4.1947 46.081 1.99444H49.4669C48.6998 2.75578 47.7583 3.69104 46.8171 4.62776ZM43.253 1.99444C42.4887 2.75485 41.5506 3.68891 40.6122 4.62444C39.5235 5.70995 38.4348 6.79692 37.6188 7.6153C37.389 7.84586 37.1818 8.05408 37.0011 8.2361C36.8204 8.05408 36.6132 7.84586 36.3834 7.6153C36.0821 7.31321 35.7434 6.97402 35.3815 6.61223C37.258 4.74038 39.2803 2.72892 40.0192 1.99431L43.253 1.99444ZM34.7349 8.7867H31.4822C31.429 8.73152 31.3719 8.67342 31.3104 8.61119C31.072 8.3692 30.7311 8.02602 30.3216 7.6153C29.5057 6.79705 28.4172 5.71008 27.3282 4.62457C26.3898 3.68905 25.4517 2.75499 24.6874 1.99457H27.9212C30.1345 4.19471 32.996 7.04463 34.7349 8.7867ZM18.4597 1.99444H21.8596C24.0729 4.1947 26.9344 7.04463 28.6733 8.7867H25.4832C25.4106 8.7867 25.3397 8.79388 25.2699 8.80425L18.4597 1.99444ZM26.7307 15.085H34.018C34.5688 15.085 35.0152 14.6387 35.0152 14.0878C35.0152 13.5369 34.5688 13.0906 34.018 13.0906H26.0314V10.7811H41.9685V13.0906H38.268C37.7171 13.0906 37.2708 13.5369 37.2708 14.0878C37.2708 14.6387 37.7171 15.085 38.268 15.085H41.2693L38.4586 17.6351C37.0003 17.3779 35.5103 17.2466 34 17.2466C32.4805 17.2466 30.9917 17.3811 29.545 17.6384L26.7307 15.085Z" fill="#FFAB00"/>
<path d="M19.834 55.6029C19.4477 55.9956 19.4529 56.6269 19.8455 57.0131C23.6507 60.7564 28.6774 62.818 34.0001 62.818C45.1356 62.818 54.195 53.7586 54.195 42.6231C54.195 31.4878 45.1356 22.4283 34.0001 22.4283C22.8646 22.4283 13.8052 31.4878 13.8052 42.6231C13.8052 46.5052 14.915 50.279 17.0146 53.5361C17.313 53.999 17.9303 54.1325 18.393 53.834C18.8559 53.5356 18.9893 52.9184 18.6909 52.4556C16.7994 49.5212 15.7996 46.1211 15.7996 42.6231C15.7996 32.5874 23.9643 24.4228 34.0001 24.4228C44.0358 24.4228 52.2005 32.5874 52.2005 42.6231C52.2005 52.6589 44.0358 60.8236 34.0001 60.8236C29.2041 60.8236 24.6739 58.9653 21.2443 55.5912C20.8515 55.2052 20.2204 55.2102 19.834 55.6029Z" fill="#FFDF7C" fill-opacity="0.5"/>
<path d="M44.9011 41.0168C45.5117 40.4109 45.7214 39.528 45.4484 38.7123C45.1753 37.8967 44.4763 37.3179 43.624 37.2017L38.4854 36.5017C38.4043 36.4906 38.3338 36.4404 38.2969 36.3672L35.9604 31.7373C35.576 30.9756 34.8104 30.5046 33.9584 30.5046C33.9516 30.5046 33.9447 30.5048 33.9378 30.5048C33.0778 30.5125 32.3113 30.9985 31.9375 31.7731L29.6839 36.4438C29.6483 36.5176 29.5788 36.5691 29.4978 36.5816L24.3726 37.373C23.5226 37.5041 22.834 38.0952 22.5754 38.9156C22.3167 39.736 22.5421 40.6151 23.1633 41.2101L26.909 44.7969C26.9682 44.8536 26.9956 44.9356 26.9825 45.0163L26.1514 50.1354C26.0135 50.9845 26.3629 51.8221 27.0632 52.3213C27.4535 52.5996 27.9072 52.7404 28.3636 52.7404C28.7266 52.7404 29.0913 52.6512 29.4269 52.471L33.9957 50.0169C34.0675 49.9782 34.154 49.9774 34.227 50.0148L38.8387 52.3874C39.6038 52.7807 40.5082 52.7071 41.1996 52.1955C41.8908 51.6837 42.2252 50.8402 42.0723 49.9936L41.1501 44.8904C41.1356 44.8097 41.1615 44.727 41.2195 44.6694L44.9011 41.0168ZM39.1877 45.245L40.1099 50.3484C40.1327 50.4742 40.0699 50.5506 40.0131 50.5926C39.9564 50.6344 39.8652 50.6724 39.7512 50.6139L35.1394 48.2413C34.4828 47.9036 33.7022 47.9109 33.052 48.2601L28.4833 50.714C28.3709 50.7749 28.2787 50.7385 28.2212 50.6975C28.1638 50.6565 28.0996 50.5812 28.12 50.4552L28.9512 45.3361C29.0695 44.6072 28.8218 43.8671 28.2885 43.3564L24.5428 39.7696C24.4505 39.6812 24.4564 39.5825 24.4777 39.5151C24.4989 39.4478 24.5507 39.3635 24.677 39.3441L29.8023 38.5527C30.5321 38.44 31.1593 37.9757 31.4803 37.3106L33.734 32.6399C33.7894 32.5247 33.8853 32.4997 33.9558 32.4992C33.9567 32.4992 33.9576 32.4991 33.9586 32.4991C34.0288 32.4991 34.1233 32.5233 34.1802 32.6358L36.5165 37.2657C36.8493 37.925 37.4849 38.3782 38.2164 38.4777L43.3549 39.1778C43.4815 39.1951 43.5349 39.2784 43.5571 39.3453C43.5793 39.4122 43.5872 39.5109 43.4965 39.6009L39.815 43.2538C39.291 43.7739 39.0565 44.5181 39.1877 45.245Z" fill="#FFAB00"/>
</g>
<defs>
<clipPath id="clip0">
<rect width="68" height="68" fill="white"/>
</clipPath>
</defs>
</svg>
